<svg width="24" height="25" viewBox="0 0 24 25" fill="none" xmlns="http://www.w3.org/2000/svg">
<path fill-rule="evenodd" clip-rule="evenodd" d="M5.15158 5.65162C5.37661 5.42666 5.68178 5.30028 5.99998 5.30028C6.31817 5.30028 6.62334 5.42666 6.84838 5.65162L12 10.8032L17.1516 5.65162C17.2623 5.53701 17.3947 5.44559 17.5411 5.3827C17.6875 5.31981 17.845 5.28671 18.0043 5.28532C18.1636 5.28394 18.3216 5.3143 18.4691 5.37464C18.6166 5.43497 18.7506 5.52408 18.8632 5.63675C18.9759 5.74942 19.065 5.8834 19.1254 6.03088C19.1857 6.17835 19.2161 6.33637 19.2147 6.49571C19.2133 6.65504 19.1802 6.8125 19.1173 6.95891C19.0544 7.10531 18.963 7.23773 18.8484 7.34842L13.6968 12.5L18.8484 17.6516C19.067 17.8779 19.1879 18.1811 19.1852 18.4957C19.1825 18.8103 19.0562 19.1113 18.8338 19.3338C18.6113 19.5563 18.3103 19.6825 17.9957 19.6852C17.681 19.688 17.3779 19.567 17.1516 19.3484L12 14.1968L6.84838 19.3484C6.62205 19.567 6.31893 19.688 6.00429 19.6852C5.68966 19.6825 5.38868 19.5563 5.16619 19.3338C4.9437 19.1113 4.8175 18.8103 4.81477 18.4957C4.81203 18.1811 4.93299 17.8779 5.15158 17.6516L10.3032 12.5L5.15158 7.34842C4.92661 7.12339 4.80023 6.81822 4.80023 6.50002C4.80023 6.18183 4.92661 5.87666 5.15158 5.65162Z" fill="black"/>
</svg>
